{"title":"Bedazzled 2000 720Ñ€ WEB-Rip x264 AC3 - ViZNU [P2PDL]","uid":7754342,"size":745614846,"categoryP":"video","categoryS":"hd___movies","magnet":"?xt=urn:btih:5950ece148f71b6e4dc3a91a5ab013145cfc87df&amp;dn=Bedazzled+2000+720%D1%80+WEB-Rip+x264+AC3+-+ViZNU+%5BP2PDL%5D&amp;tr=udp%3A%2F%2Ftracker.openbittorrent.com%3A80&amp;tr=udp%3A%2F%2Fopen.demonii.com%3A1337&amp;tr=udp%3A%2F%2Ftracker.coppersurfer.tk%3A6969&amp;tr=udp%3A%2F%2Fexodus.desync.com%3A6969","seeders":2,"leechers":0,"uploader":"ValidusVyto","files":13,"time":1351049043,"description":"_________________________  Visit us at _________________________\n  &lt;a href=&quot;\nhttp://tinym.eu&quot; rel=&quot;nofollow&quot; target=&quot;_NEW&quot;&gt;\nhttp://tinym.eu&lt;/a&gt;  ____________________________ &lt;a href=&quot; http://p2pdl.com&quot; rel=&quot;nofollow&quot; target=&quot;_NEW&quot;&gt; http://p2pdl.com&lt;/a&gt;\n\n\nBedazzled 2000 720P WEB-DL Rip x264 AC3 - ViZNU [P2PDL]\n\n\t\t\t\t\t\nGenre: Comedy | Fantasy\nPlot: Hopeless dweeb Elliot Richards is granted 7 wishes by the devil to snare Allison, the girl of\nhis dreams, in exchange for his soul.\nDirector: Harold Ramis\nStars: Brendan Fraser, Elizabeth Hurley and Frances O'Connor.\nRated: PG-13 for sex-related humor, language and some drug content. &lt;a href=&quot;\nhttp://www.imdb.com/title/tt0230030/&quot; rel=&quot;nofollow&quot; target=&quot;_NEW&quot;&gt;\nhttp://www.imdb.com/title/tt0230030/&lt;/a&gt;\n\n\nGeneral\nFormat                         : Matroska\nFormat version                 : Version 2\nFile size                      : 690 MiB\nDuration                       : 1h 33mn\nOverall bit rate               : 1 035 Kbps\nMovie name                     : Bedazzled 2000\nSource                         : 720P.WEB-DL.5xRus.Eng.HDCLUB(Thanks)\n\nVideo\nID                             : 1\nFormat                         : AVC\nFormat/Info                    : Advanced Video Codec\nCodec ID                       : V_MPEG4/ISO/AVC\nDuration                       : 1h 33mn\nBit rate                       : 779 Kbps\nWidth                          : 1 280 pixels\nHeight                         : 544 pixels\nDisplay aspect ratio           : 2.35:1\nFrame rate mode                : Constant\nFrame rate                     : 23.976 fps\nStream size                    : 505 MiB (73%)\nWriting library                : x264 core 125 r2208 d9d2288\nDefault                        : Yes\nForced                         : No\n\nAudio\nID                             : 2\nFormat                         : AC-3\nFormat/Info                    : Audio Coding 3\nCodec ID                       : A_AC3\nDuration                       : 1h 33mn\nBit rate mode                  : Constant\nBit rate                       : 256 Kbps\nChannel(s)                     : 2 channels\nChannel positions              : Front: L R\nSampling rate                  : 48.0 KHz\nStream size                    : 171 MiB (25%)\nLanguage                       : English\nDefault                        : Yes\nForced                         : No\n\nSubtitle                       : Yes(English)\n\n\nScreens:\n\n &lt;a href=&quot;\nhttp://www.shotpix.com/images/96313496718035820923.png&quot; rel=&quot;nofollow&quot; target=&quot;_NEW&quot;&gt;\nhttp://www.shotpix.com/images/96313496718035820923.png&lt;/a&gt; &lt;a href=&quot;\nhttp://www.shotpix.com/images/48693066856179109065.png&quot; rel=&quot;nofollow&quot; target=&quot;_NEW&quot;&gt;\nhttp://www.shotpix.com/images/48693066856179109065.png&lt;/a&gt; &lt;a href=&quot;\nhttp://www.shotpix.com/images/77611978344125633372.png&quot; rel=&quot;nofollow&quot; target=&quot;_NEW&quot;&gt;\nhttp://www.shotpix.com/images/77611978344125633372.png&lt;/a&gt; &lt;a href=&quot;\nhttp://www.shotpix.com/images/72947608612243071462.png&quot; rel=&quot;nofollow&quot; target=&quot;_NEW&quot;&gt;\nhttp://www.shotpix.com/images/72947608612243071462.png&lt;/a&gt; &lt;a href=&quot;\nhttp://www.shotpix.com/images/17754189377782150631.png&quot; rel=&quot;nofollow&quot; target=&quot;_NEW&quot;&gt;\nhttp://www.shotpix.com/images/17754189377782150631.png&lt;/a&gt; &lt;a href=&quot;\nhttp://www.shotpix.com/images/71406673151046980264.png&quot; rel=&quot;nofollow&quot; target=&quot;_NEW&quot;&gt;\nhttp://www.shotpix.com/images/71406673151046980264.png&lt;/a&gt;\n\n\n----------------------------------------------------------------------------------------------------\n\n\nRecommend to you to use latest version of VLC player. Install K-Lite Codec Pack or shark007 codecs\nin case of any kind of problem in playback (For non-VLC Media Player users). Alternatively, install\nCore AVC codecs, the fastest decoder that there is coupled with Community Center Codec Pack and play\non Windows Media Player Classic. Check sample to be sure.\nEnjoy!\n\n\nGreets to: srkfan, Vitamin_X, staff members at ExtraTorrent, TPB,KAT, 1337x, PublicHD, Ahashare,\nSilverTorrent, TorrentMafia, DigTorrent, P2PDL, and all others.\n\n\nEncoder Notes: Looking For Early Access To Anything You Can Provide DVDScr, R5, DVDR, BluRay, Direct\nAudio, Early Music Releases, Seedboxes, Dedicated Servers anything u can provide, Advance / Promo CDs/\nDVDs. If You Got anything to offer contact me at &quot;&lt;a class=&quot;__cf_email__&quot; href=&quot;/cdn-cgi/l/email-protection&quot; data-cfemail=&quot;076468697366647347736e697e6a296272&quot;&gt;[email&amp;#160;protected]&lt;/a&gt;&lt;script cf-hash='f9e31' type=&quot;text/javascript&quot;&gt;\n/* &lt;![CDATA[ */!function(){try{var t=&quot;currentScript&quot;in document?document.currentScript:function(){for(var t=document.getElementsByTagName(&quot;script&quot;),e=t.length;e--;)if(t[e].getAttribute(&quot;cf-hash&quot;))return t[e]}();if(t&amp;&amp;t.previousSibling){var e,r,n,i,c=t.previousSibling,a=c.getAttribute(&quot;data-cfemail&quot;);if(a){for(e=&quot;&quot;,r=parseInt(a.substr(0,2),16),n=2;a.length-n;n+=2)i=parseInt(a.substr(n,2),16)^r,e+=String.fromCharCode(i);e=document.createTextNode(e),c.parentNode.replaceChild(e,c)}}}catch(u){}}();/* ]]&gt; */&lt;/script&gt;&quot;\n\n\nFacebook Fan Page: www . facebook . com / p2pdl","torrent":{"xt":"urn:btih:5950ece148f71b6e4dc3a91a5ab013145cfc87df","amp;dn":"Bedazzled+2000+720%D1%80+WEB-Rip+x264+AC3+-+ViZNU+%5BP2PDL%5D","amp;tr":["udp%3A%2F%2Ftracker.openbittorrent.com%3A80","udp%3A%2F%2Fopen.demonii.com%3A1337","udp%3A%2F%2Ftracker.coppersurfer.tk%3A6969","udp%3A%2F%2Fexodus.desync.com%3A6969"],"infoHash":"5950ece148f71b6e4dc3a91a5ab013145cfc87df","infoHashBuffer":{"type":"Buffer","data":[89,80,236,225,72,247,27,110,77,195,169,26,90,176,19,20,92,252,135,223]},"announce":[],"urlList":[]}}